<svg width="24" height="24" viewBox="0 0 24 24" fill="none" xmlns="http://www.w3.org/2000/svg">
<path d="M7.5 18C8.32843 18 9 18.6716 9 19.5C9 20.3284 8.32843 21 7.5 21C6.67157 21 6 20.3284 6 19.5C6 18.6716 6.67157 18 7.5 18Z" stroke="#1C274C" stroke-width="1.5"/>
<path d="M16.5 18C17.3284 18 18 18.6715 18 19.5C18 20.3284 17.3284 21 16.5 21C15.6716 21 15 20.3284 15 19.5C15 18.6715 15.6716 18 16.5 18Z" stroke="#1C274C" stroke-width="1.5"/>
<path d="M2.24878 2.29242C1.85801 2.15503 1.42986 2.36044 1.29248 2.7512C1.15509 3.14197 1.3605 3.57012 1.75126 3.7075L2.24878 2.29242ZM20.6578 9.88271L21.3923 10.0342L21.3933 10.0296L20.6578 9.88271ZM5.7081 9.75996V7.03832H4.2081V9.75996H5.7081ZM2.50999 2.38425L2.24878 2.29242L1.75126 3.7075L2.01247 3.79934L2.50999 2.38425ZM10.9375 16.25H16.2404V14.75H10.9375V16.25ZM5.7081 7.03832C5.7081 6.33116 5.70912 5.74106 5.65721 5.26153C5.60348 4.76515 5.48707 4.31243 5.20509 3.89979L3.96663 4.74609C4.05689 4.87818 4.12659 5.0596 4.16592 5.42295C4.20708 5.80316 4.2081 6.29837 4.2081 7.03832H5.7081ZM2.01247 3.79934C2.68008 4.03406 3.11883 4.18961 3.44168 4.34802C3.7449 4.4968 3.87857 4.61723 3.96663 4.74609L5.20509 3.89979C4.92091 3.48393 4.54306 3.21759 4.10243 3.00139C3.68141 2.79481 3.14397 2.60715 2.50999 2.38425L2.01247 3.79934ZM4.2081 9.75996C4.2081 11.2125 4.22173 12.2599 4.35878 13.0601C4.5051 13.9144 4.79724 14.5261 5.34347 15.1022L6.432 14.0702C6.11184 13.7325 5.93915 13.4018 5.83725 12.8069C5.72609 12.1578 5.7081 11.249 5.7081 9.75996H4.2081ZM10.9375 14.75C9.52071 14.75 8.53765 14.7482 7.79698 14.6432C7.08217 14.5418 6.70454 14.3576 6.432 14.0702L5.34347 15.1022C5.93733 15.7286 6.69014 16.0013 7.58638 16.1283C8.45676 16.2518 9.56537 16.25 10.9375 16.25V14.75ZM4.9581 6.86996H17.0888V5.36996H4.9581V6.86996ZM19.9232 9.73131L19.4235 12.1561L20.8926 12.4589L21.3923 10.0342L19.9232 9.73131ZM17.0888 6.86996C17.9452 6.86996 18.6989 6.87096 19.2937 6.93745C19.5893 6.97049 19.8105 7.01639 19.9659 7.07101C20.1273 7.12772 20.153 7.17123 20.1401 7.15435L21.329 6.23974C21.094 5.93432 20.7636 5.76141 20.4632 5.65583C20.1567 5.54814 19.8101 5.48583 19.4604 5.44674C18.7646 5.36896 17.9174 5.36996 17.0888 5.36996V6.86996ZM21.3933 10.0296C21.5625 9.18163 21.7062 8.4702 21.7414 7.90034C21.7775 7.31414 21.7108 6.73613 21.329 6.23974L20.1401 7.15435C20.2021 7.23504 20.2706 7.38033 20.2442 7.80793C20.2168 8.25187 20.1002 8.84474 19.9223 9.73591L21.3933 10.0296ZM16.2404 16.25C17.0021 16.25 17.6413 16.2513 18.1566 16.1882C18.6923 16.1227 19.1809 15.9794 19.6074 15.6318L18.6598 14.469C18.5346 14.571 18.3571 14.6525 17.9744 14.6994C17.5712 14.7487 17.0397 14.75 16.2404 14.75V16.25ZM19.4235 12.1561C19.2621 12.9389 19.1535 13.4593 19.0238 13.8442C18.9007 14.2095 18.785 14.367 18.6598 14.469L19.6074 15.6318C20.0339 15.2842 20.2729 14.8346 20.4453 14.3232C20.6111 13.8312 20.7388 13.2049 20.8926 12.4589L19.4235 12.1561Z" fill="#1C274C"/>
</svg>
