<svg width="24" height="24" viewBox="0 0 24 24" fill="none" xmlns="http://www.w3.org/2000/svg">
<path d="M18.7199 3.18726H15.8399C14.7794 3.18726 13.9199 4.04687 13.9199 5.10726V7.98726C13.9199 9.04764 14.7794 9.90725 15.8399 9.90725H18.7199C19.7803 9.90725 20.6399 9.04764 20.6399 7.98726V5.10726C20.6399 4.04687 19.7803 3.18726 18.7199 3.18726Z" stroke="black" stroke-width="1.44" stroke-linecap="round" stroke-linejoin="round"/>
<path d="M8.16011 3.18726H5.28011C4.21972 3.18726 3.36011 4.04687 3.36011 5.10726V7.98726C3.36011 9.04764 4.21972 9.90725 5.28011 9.90725H8.16011C9.22049 9.90725 10.0801 9.04764 10.0801 7.98726V5.10726C10.0801 4.04687 9.22049 3.18726 8.16011 3.18726Z" stroke="black" stroke-width="1.44" stroke-linecap="round" stroke-linejoin="round"/>
<path d="M18.7199 13.7471H15.8399C14.7794 13.7471 13.9199 14.6067 13.9199 15.6671V18.5471C13.9199 19.6075 14.7794 20.4671 15.8399 20.4671H18.7199C19.7803 20.4671 20.6399 19.6075 20.6399 18.5471V15.6671C20.6399 14.6067 19.7803 13.7471 18.7199 13.7471Z" stroke="black" stroke-width="1.44" stroke-linecap="round" stroke-linejoin="round"/>
<path d="M8.16011 13.7471H5.28011C4.21972 13.7471 3.36011 14.6067 3.36011 15.6671V18.5471C3.36011 19.6075 4.21972 20.4671 5.28011 20.4671H8.16011C9.22049 20.4671 10.0801 19.6075 10.0801 18.5471V15.6671C10.0801 14.6067 9.22049 13.7471 8.16011 13.7471Z" stroke="black" stroke-width="1.44" stroke-linecap="round" stroke-linejoin="round"/>
</svg>
