<svg width="24" height="24" viewBox="0 0 24 24" fill="none" xmlns="http://www.w3.org/2000/svg">
<path d="M21.5999 12.2272C21.5999 11.5181 21.5363 10.8363 21.4181 10.1818H12V14.0545H17.3817C17.1454 15.2999 16.4363 16.3545 15.3727 17.0635V19.5817H18.6181C20.509 17.8363 21.5999 15.2726 21.5999 12.2272Z" fill="#4285F4"/>
<path d="M11.9997 22.0001C14.6997 22.0001 16.9633 21.1091 18.6178 19.5819L15.3724 17.0637C14.4815 17.6637 13.3451 18.0273 11.9997 18.0273C9.39969 18.0273 7.1906 16.2728 6.3997 13.9092H3.07244V16.491C4.71789 19.7546 8.0906 22.0001 11.9997 22.0001Z" fill="#34A853"/>
<path d="M6.39998 13.8997C6.19998 13.2997 6.0818 12.6634 6.0818 11.9997C6.0818 11.3361 6.19998 10.6997 6.39998 10.0998V7.51794H3.07272C2.39091 8.86339 2 10.3816 2 11.9997C2 13.6179 2.39091 15.1361 3.07272 16.4815L5.66362 14.4634L6.39998 13.8997Z" fill="#FBBC05"/>
<path d="M11.9997 5.9818C13.4724 5.9818 14.7815 6.49089 15.8269 7.4727L18.6906 4.60908C16.9542 2.9909 14.6997 2 11.9997 2C8.0906 2 4.71789 4.24544 3.07244 7.51816L6.3997 10.1C7.1906 7.73634 9.39969 5.9818 11.9997 5.9818Z" fill="#EA4335"/>
</svg>
