<svg width="19" height="18" viewBox="0 0 19 18" fill="none" xmlns="http://www.w3.org/2000/svg">
<path fill-rule="evenodd" clip-rule="evenodd" d="M15.5 18.0003H12.3C12.134 18.0003 12 17.8662 12 17.7002V13.5003C12 12.1193 10.881 11.0003 9.5 11.0003C8.119 11.0003 7 12.1193 7 13.5003V17.7002C7 17.8662 6.86595 18.0003 6.69995 18.0003H3.5C1.5 18.0003 0.5 17.0003 0.5 15.0003V8.65127C0.5 6.65327 1.02305 6.34632 1.93005 5.58633L7.89404 0.585227C8.82304 -0.193773 10.1781 -0.193773 11.1071 0.585227L17.071 5.58633C17.977 6.34632 18.501 6.65327 18.501 8.65127V15.0003C18.5 17.0003 17.5 18.0003 15.5 18.0003Z" fill="#D90803"/>
</svg>
