<svg width="24" height="24" viewBox="0 0 24 24" fill="none" xmlns="http://www.w3.org/2000/svg">
<path d="M11.4951 11.5073C11.3998 11.4977 11.2854 11.4977 11.1805 11.5073C8.91222 11.4306 7.1109 9.56032 7.1109 7.25846C7.1109 4.90863 8.998 3 11.3426 3C13.6776 3 15.5742 4.90863 15.5742 7.25846C15.5647 9.56032 13.7633 11.4306 11.4951 11.5073Z" stroke="#292D32" stroke-width="1.25" stroke-linecap="round" stroke-linejoin="round"/>
<path d="M6.72984 15.0464C4.42339 16.6001 4.42339 19.1322 6.72984 20.6763C9.35081 22.4411 13.6492 22.4411 16.2702 20.6763C18.5766 19.1226 18.5766 16.5905 16.2702 15.0464C13.6587 13.2912 9.36034 13.2912 6.72984 15.0464Z" stroke="#292D32" stroke-width="1.25" stroke-linecap="round" stroke-linejoin="round"/>
</svg>
