<svg width="21" height="20" viewBox="0 0 21 20" fill="none" xmlns="http://www.w3.org/2000/svg">
<path d="M20.03 18.47L16.189 14.629C17.473 13.106 18.25 11.143 18.25 9C18.25 4.175 14.325 0.25 9.5 0.25C4.675 0.25 0.75 4.175 0.75 9C0.75 13.825 4.675 17.75 9.5 17.75C11.643 17.75 13.606 16.973 15.129 15.689L18.97 19.53C19.116 19.676 19.308 19.75 19.5 19.75C19.692 19.75 19.884 19.677 20.03 19.53C20.323 19.238 20.323 18.763 20.03 18.47ZM2.25 9C2.25 5.002 5.502 1.75 9.5 1.75C13.498 1.75 16.75 5.002 16.75 9C16.75 12.998 13.498 16.25 9.5 16.25C5.502 16.25 2.25 12.998 2.25 9Z" fill="#495057"/>
</svg>
