<svg width="19" height="21" viewBox="0 0 19 21" fill="none" xmlns="http://www.w3.org/2000/svg">
<path d="M6.521 20.25C5.832 20.25 5.26599 19.69 5.26599 19C5.26599 18.31 5.82099 17.75 6.51099 17.75H6.521C7.211 17.75 7.771 18.31 7.771 19C7.771 19.69 7.211 20.25 6.521 20.25ZM15.771 19C15.771 18.31 15.211 17.75 14.521 17.75H14.511C13.821 17.75 13.266 18.31 13.266 19C13.266 19.69 13.831 20.25 14.521 20.25C15.211 20.25 15.771 19.69 15.771 19ZM10.501 11.75C10.091 11.75 9.75098 11.41 9.75098 11C9.75098 10.59 10.091 10.25 10.501 10.25H17.569C17.716 10.25 17.841 10.143 17.865 9.99803L18.46 6.35902C18.69 5.12902 17.74 3.99902 16.5 3.99902H4.44104L4.23206 2.61304C4.03806 1.24304 2.89203 0.249023 1.50903 0.249023H1.24902C0.835023 0.249023 0.499023 0.585023 0.499023 0.999023C0.499023 1.41302 0.835023 1.74902 1.24902 1.74902H1.49902C2.12602 1.74902 2.65805 2.21002 2.74805 2.83102L4.24902 13.279C4.38902 14.269 5.229 14.999 6.229 14.999H14.499C16.599 14.999 17.189 13.959 17.449 12.539L17.52 12.104C17.52 12.104 17.585 11.749 17.248 11.749C16.934 11.75 10.501 11.75 10.501 11.75Z" fill="#495057"/>
</svg>
